<svg width="206" height="40" viewBox="0 0 206 40" fill="none" xmlns="http://www.w3.org/2000/svg">
<g clip-path="url(#clip0_1302_16)">
<path d="M56.5491 4H48.4707V11.2V18.4V28.8C48.4707 29.912 48.6339 30.9856 48.9409 32C50.025 35.6128 52.9009 38.4608 56.5491 39.5344C57.5735 39.8384 58.6576 40 59.7805 40C61.5158 40 63.1589 39.6128 64.6276 38.9216V32V31.4608C63.8924 31.8064 63.07 32 62.204 32C59.0809 32 56.5491 29.4928 56.5491 26.4V18.4H64.6276V11.2H56.5491V4Z" fill="#891F9A"/>
<path d="M79.1685 16.8V11.2H71.0901V40H79.1685V25.6C79.1685 23.8752 79.7809 22.2912 80.8036 21.0512C82.1365 19.4336 84.1658 18.4 86.4391 18.4C86.7122 18.4 86.982 18.4144 87.247 18.4448V10.6016C86.7315 10.4704 86.1887 10.4 85.6313 10.4C82.0622 10.4 79.1685 13.2656 79.1685 16.8Z" fill="#891F9A"/>
<path d="M103.808 10.4C96.5211 10.4 90.4526 15.5648 89.131 22.4C88.9549 23.3056 88.8628 24.2432 88.8628 25.2C88.8628 25.8784 88.9097 26.5456 88.9985 27.2C89.9841 34.4288 96.2384 40 103.808 40C109.34 40 114.168 37.0256 116.753 32.6016L110.455 29C109.128 31.272 106.648 32.8 103.808 32.8C100.27 32.8 97.2886 30.4272 96.4032 27.2H97.951H105.385H108.049H111.213H113.098H118.617C118.706 26.5456 118.753 25.8784 118.753 25.2C118.753 24.2432 118.661 23.3056 118.485 22.4C117.163 15.5648 111.095 10.4 103.808 10.4ZM107.866 22.4H99.6604H98.1336H96.6714C96.8104 22.0528 96.9735 21.7184 97.161 21.4C98.4874 19.128 100.968 17.6 103.808 17.6C107.047 17.6 109.818 19.5888 110.944 22.4H107.866Z" fill="#891F9A"/>
<path d="M179.745 10.4C172.458 10.4 166.39 15.5648 165.068 22.4C164.892 23.3056 164.8 24.2432 164.8 25.2C164.8 25.8784 164.847 26.5456 164.936 27.2C165.921 34.4288 172.176 40 179.745 40C185.277 40 190.105 37.0256 192.69 32.6016L186.392 29C185.066 31.272 182.586 32.8 179.745 32.8C176.207 32.8 173.226 30.4272 172.34 27.2H173.888H181.322H183.986H187.15H189.035H194.555C194.643 26.5456 194.69 25.8784 194.69 25.2C194.69 24.2432 194.598 23.3056 194.422 22.4C193.1 15.5648 187.032 10.4 179.745 10.4ZM183.804 22.4H175.598H174.071H172.609C172.748 22.0528 172.911 21.7184 173.098 21.4C174.425 19.128 176.905 17.6 179.745 17.6C182.985 17.6 185.756 19.5888 186.882 22.4H183.804Z" fill="#891F9A"/>
<path d="M130.871 11.2H122.792V40H130.871V11.2Z" fill="#891F9A"/>
<path d="M201.961 40C204.192 40 206 38.2091 206 36C206 33.7909 204.192 32 201.961 32C199.73 32 197.922 33.7909 197.922 36C197.922 38.2091 199.73 40 201.961 40Z" fill="#891F9A"/>
<path d="M154.628 11.2C153.411 10.6848 152.07 10.4 150.663 10.4C147.591 10.4 144.84 11.7584 142.988 13.9008V11.2H134.91V40H142.988V22.3792C143 19.7376 145.165 17.6 147.835 17.6C150.513 17.6 152.682 19.7488 152.682 22.4V40H160.761V20.4C160.761 16.2704 158.234 12.7264 154.628 11.2Z" fill="#891F9A"/>
<path d="M130.871 0H122.792V8H130.871V0Z" fill="#891F9A"/>
<path d="M0 17.8883V17.8864" stroke="#FF0000" stroke-miterlimit="10"/>
<path d="M0 17.8883V17.8864" stroke="#FF0000" stroke-miterlimit="10"/>
<path d="M20.2332 17.0864C20.3835 19.3152 20.9958 21.4192 21.9733 23.304C24.6537 28.4672 30.0857 32 36.3529 32V40C25.7443 40 16.7288 33.2496 13.4441 23.8512C12.6976 21.7168 12.2485 19.4448 12.1418 17.0864H20.2332Z" fill="url(#paint0_linear_1302_16)"/>
<path d="M0 17.888L5.75184 12.2384C7.57434 13.7632 9.74259 14.8912 12.1225 15.4976C13.4118 15.8256 14.7641 16 16.1569 16C17.5544 16 18.91 15.824 20.2042 15.4944C23.0251 14.7744 25.5488 13.3168 27.5507 11.3424L33.2395 17.0224C30.1762 20.0368 26.305 22.248 21.9733 23.304C20.1104 23.7584 18.1619 24 16.1569 24C15.2392 24 14.3344 23.9488 13.4441 23.8512C8.30624 23.2848 3.65307 21.1264 0 17.888Z" fill="#891F9A"/>
<path d="M34.6725 11.9984C36.9033 11.9984 38.7117 10.2075 38.7117 7.9984C38.7117 5.78926 36.9033 3.9984 34.6725 3.9984C32.4417 3.9984 30.6333 5.78926 30.6333 7.9984C30.6333 10.2075 32.4417 11.9984 34.6725 11.9984Z" fill="#891F9A"/>
</g>
<defs>
<linearGradient id="paint0_linear_1302_16" x1="12.142" y1="28.543" x2="36.3529" y2="28.543" gradientUnits="userSpaceOnUse">
<stop stop-color="#891F9A" stop-opacity="0"/>
<stop offset="0.5" stop-color="#891F9A" stop-opacity="0.5"/>
<stop offset="1" stop-color="#891F9A"/>
</linearGradient>
<clipPath id="clip0_1302_16">
<rect width="206" height="40" fill="white"/>
</clipPath>
</defs>
</svg>
